General

Format : Matroska
Format version : Version 2
File size : 836 MiB
Duration : 2h 7mn
Overall bit rate : 920 Kbps
Encoded date : UTC 2011-12-26 16:22:05
Writing application : mkvmerge v4.3.0 ('Escape from the Island') built on Sep 5 2010 10:30:51
Writing library : libebml v1.0.0 + libmatroska v1.0.0

Video
ID : 1
Format : AVC
Format/Info : Advanced Video Codec
Format profile : High@L3.1
Format settings, CABAC : Yes
Format settings, ReFrames : 4 frames
Muxing mode : Header stripping
Codec ID : V_MPEG4/ISO/AVC
Duration : 2h 7mn
Bit rate : 767 Kbps
Width : 1 280 pixels
Height : 544 pixels
Display aspect ratio : 2.35:1
Frame rate : 23.976 fps
Color space : YUV
Chroma subsampling : 4:2:0
Bit depth : 8 bits
Scan type : Progressive
Bits/(Pixel*Frame) : 0.046
Stream size : 681 MiB (81%)
Title : State of Play(2009)720p Dual Audio{Hindi English}~JAGJIT639~KHARAY-=KSRR=-


Audio #1
ID : 2
Format : MPEG Audio
Format version : Version 1
Format profile : Layer 3
Mode : Joint stereo
Mode extension : MS Stereo
Muxing mode : Header stripping
Codec ID : A_MPEG/L3
Codec ID/Hint : MP3
Duration : 2h 6mn
Bit rate mode : Constant
Bit rate : 96.0 Kbps
Channel(s) : 2 channels
Sampling rate : 32.0 KHz
Compression mode : Lossy
Delay relative to video : 1s 200ms
Stream size : 87.2 MiB (10%)
Title : Hindi Audio-=KSRR=-
Writing library : LAME3.98r
Encoding settings : -m j -V 4 -q 2 -lowpass 15.1 -b 96
Language : Hindi

Audio #2
ID : 3
Format : MPEG Audio
Format version : Version 2
Format profile : Layer 3
Mode : Joint stereo
Muxing mode : Header stripping
Codec ID : A_MPEG/L3
Codec ID/Hint : MP3
Duration : 2h 7mn
Bit rate mode : Constant
Bit rate : 56.0 Kbps
Channel(s) : 2 channels
Sampling rate : 24.0 KHz
Compression mode : Lossy
Stream size : 50.9 MiB (6%)
Title : English-=KSRR=-
Writing library : LAME3.98.4
Language : English


Screens
 
http://www.postimg.com/56000/photo-55881.jpg
 
http://www.postimg.com/56000/photo-55882.jpg
 
http://www.postimg.com/56000/photo-55883.jpg
 
http://www.postimg.com/56000/photo-55884.jpg
 
http://www.postimg.com/56000/photo-55885.jpg
 
http://www.postimg.com/56000/photo-55886.jpg
 
http://www.postimg.com/56000/photo-55887.jpg
 
http://www.postimg.com/56000/photo-55888.jpg



SAMPLE INCLUDED IN TORRENT